HIERARCHY
ROOT hip
{
	OFFSET 0.000000 0.000000 0.000000 
	CHANNELS 6 Xposition Yposition Zposition Xrotation Zrotation Yrotation
	JOINT abdomen
	{
		OFFSET 0.000000 3.402643 0.000000 
		CHANNELS 3 Xrotation Zrotation Yrotation
		JOINT chest
		{
			OFFSET 0.000000 8.438565 -0.680529 
			CHANNELS 3 Xrotation Zrotation Yrotation
			JOINT neck
			{
				OFFSET 0.000000 10.207942 -0.272212 
				CHANNELS 3 Xrotation Zrotation Yrotation
				JOINT head
				{
					OFFSET 0.000000 3.130431 0.000000 
					CHANNELS 3 Xrotation Zrotation Yrotation
					End Site
					{
						OFFSET 0.000000 3.130435 0.000000 
					}
				}
			}
			JOINT lCollar
			{
				OFFSET 3.470700 6.669187 -0.816635 
				CHANNELS 3 Yrotation Zrotation Xrotation
				JOINT lShldr
				{
					OFFSET 3.198488 0.000000 0.000000 
					CHANNELS 3 Zrotation Yrotation Xrotation
					JOINT lForeArm
					{
						OFFSET 10.139888 0.000000 0.000000 
						CHANNELS 3 Yrotation Zrotation Xrotation
						JOINT lHand
						{
							OFFSET 8.370511 0.000000 0.000000 
							CHANNELS 3 Zrotation Yrotation Xrotation
							End Site
							{
								OFFSET 4.083176 0.000000 0.000000 
							}
						}
					}
				}
			}
			JOINT rCollar
			{
				OFFSET -3.470700 6.669187 -0.816635 
				CHANNELS 3 Yrotation Zrotation Xrotation
				JOINT rShldr
				{
					OFFSET -3.198488 0.000000 0.000000 
					CHANNELS 3 Zrotation Yrotation Xrotation
					JOINT rForeArm
					{
						OFFSET -10.139888 0.000000 0.000000 
						CHANNELS 3 Yrotation Zrotation Xrotation
						JOINT rHand
						{
							OFFSET -8.370511 0.000000 0.000000 
							CHANNELS 3 Zrotation Yrotation Xrotation
							End Site
							{
								OFFSET -4.083176 0.000000 0.000000 
							}
						}
					}
				}
			}
		}
	}
	JOINT lThigh
	{
		OFFSET 5.308129 -1.633274 1.361059 
		CHANNELS 3 Xrotation Zrotation Yrotation
		JOINT lShin
		{
			OFFSET -2.041588 -20.007561 0.000000 
			CHANNELS 3 Xrotation Zrotation Yrotation
			JOINT lFoot
			{
				OFFSET 0.000000 -19.190928 -1.224953 
				CHANNELS 3 Xrotation Yrotation Zrotation
				End Site
				{
					OFFSET 0.000000 -2.449906 4.627600 
				}
			}
		}
	}
	JOINT rThigh
	{
		OFFSET -5.308129 -1.633274 1.361059 
		CHANNELS 3 Xrotation Zrotation Yrotation
		JOINT rShin
		{
			OFFSET 2.041588 -20.007561 0.000000 
			CHANNELS 3 Xrotation Zrotation Yrotation
			JOINT rFoot
			{
				OFFSET 0.000000 -19.190928 -1.224953 
				CHANNELS 3 Xrotation Yrotation Zrotation
				End Site
				{
					OFFSET 0.000000 -2.449906 4.627600 
				}
			}
		}
	}
}
MOTION
Frames: 19
Frame Time: 0.033333
-1.623863 40.450962 12.008303 -147.415405 13.230035 4.033744 0.000000 0.000000 0.000000 -22.614155 -18.566639 2.563089 -73.530678 1.240223 -0.244083 -11.868655 0.742636 -12.852616 30.288782 29.993898 -0.480345 -13.421664 17.325884 -33.614223 -54.351318 40.156742 -111.312393 93.381180 9.408705 -13.444216 -16.353130 -30.000000 14.368906 0.095365 -42.783836 41.679176 158.036819 -136.841095 3.285878 -70.024284 -56.728397 -26.672869 -8.674432 -9.351574 14.244572 12.934743 -0.509913 -0.161768 38.680458 -12.984256 16.145897 -4.518884 -10.100620 -1.761532 2.828224 5.031965 0.482301 60.118015 -12.309749 19.798197 
-1.570758 40.370548 12.104697 -146.937302 13.206330 4.294285 0.000000 0.000000 0.000000 -22.813377 -18.723288 2.526071 -73.606049 0.478509 -0.302724 -11.112335 0.811458 -12.159316 30.802429 29.991976 -0.938329 -13.590062 16.563316 -33.412724 -53.920128 41.133312 -111.275108 93.396492 9.397289 -13.042384 -16.493692 -30.000000 14.526323 -0.373604 -43.491600 41.570213 158.622665 -136.456772 3.102068 -69.777916 -56.721722 -26.997154 -9.321067 -9.303573 14.220562 12.891741 -0.890477 -0.283782 38.792347 -12.914146 16.267786 -5.106529 -10.320125 -1.844318 2.625027 5.152327 0.475828 60.036598 -12.410849 19.442738 
-1.569595 40.283417 12.176694 -146.636047 13.030876 4.301565 0.000000 0.000000 0.000000 -22.958502 -18.694021 2.522940 -73.738739 -0.244136 -0.351601 -10.192515 0.977315 -11.144102 31.164581 29.993734 -1.246746 -13.505884 16.105808 -33.315281 -53.350479 41.631199 -111.106857 92.854774 9.834229 -12.847574 -16.412786 -30.000000 14.801059 -0.908325 -44.184669 41.467957 159.193985 -136.155884 2.850816 -69.780556 -56.722519 -27.046921 -9.690803 -8.962365 14.336988 12.964842 -1.171771 -0.391891 38.492397 -12.916259 16.080818 -5.613390 -10.191456 -1.773273 2.782866 5.135312 0.488664 59.737640 -12.430902 19.038635 
-1.583025 40.375618 12.178770 -147.284821 12.801714 4.008072 0.000000 0.000000 0.000000 -22.211033 -18.439255 2.603239 -73.451836 -0.761701 -0.390720 -10.015182 1.190740 -10.480693 31.505228 29.996349 -1.741087 -13.822422 15.881759 -33.235611 -52.806633 41.364548 -111.089165 92.490532 10.152357 -12.911355 -16.543861 -30.000000 14.664536 -0.872428 -44.380775 41.427197 160.132156 -135.943024 3.152747 -69.748863 -56.713631 -27.071411 -8.831862 -8.531950 14.446023 12.952036 -1.329764 -0.347868 37.911015 -13.011994 15.744501 -4.851313 -9.760043 -1.620502 2.762152 4.979558 0.408111 59.596844 -12.010599 19.387756 
-1.626395 40.459244 12.159832 -148.096466 12.467400 3.520785 0.000000 0.000000 0.000000 -21.337486 -17.959555 2.717657 -73.382256 -0.917946 -0.400496 -10.096621 1.325552 -10.393235 31.775553 29.990623 -2.016384 -13.795564 15.759473 -33.211674 -52.412483 41.098877 -111.406174 92.527412 10.128431 -13.054226 -16.881214 -30.000000 14.355101 -0.801779 -44.148399 41.471233 160.531082 -135.968445 2.924374 -70.272903 -56.750504 -26.530396 -7.811103 -7.987657 14.637300 12.868448 -1.457066 -0.394588 37.785946 -12.848063 15.112410 -3.835476 -9.104530 -1.487350 2.526219 4.818289 0.407931 59.429169 -11.865973 19.179728 
-1.699677 40.530582 12.108938 -149.147186 12.065917 2.817543 0.000000 0.000000 0.000000 -20.277906 -17.333132 2.863228 -73.314789 -0.810528 -0.390724 -9.819147 1.507771 -10.452755 32.034702 29.994967 -2.179473 -13.545040 15.644321 -33.205811 -52.072403 40.906849 -111.707550 92.716599 10.018086 -13.271428 -17.178328 -30.000000 14.064457 -0.976739 -43.183933 41.712990 160.207108 -136.890686 2.322565 -70.934570 -56.747692 -25.318815 -6.518804 -7.292089 14.875379 12.853124 -1.651843 -0.470811 37.667988 -12.626678 14.568344 -2.596017 -8.314576 -1.288436 2.332867 4.665012 0.352953 59.232288 -12.015764 18.853954 
-1.810118 40.602131 12.032144 -150.422562 11.517313 1.894138 0.000000 0.000000 0.000000 -19.080292 -16.530626 3.043644 -73.131729 -0.468740 -0.371161 -9.469835 1.286154 -10.627553 32.292950 29.988827 -2.317726 -13.197495 15.587785 -33.218155 -51.627953 40.587154 -111.621201 92.637100 10.100355 -13.554151 -17.329094 -29.999462 13.862844 -1.045988 -42.025581 41.951244 159.520401 -138.043518 1.613024 -71.657310 -56.720097 -23.866446 -4.954624 -6.334510 15.162890 12.710839 -1.964575 -0.501977 37.677322 -12.500539 14.048028 -1.015595 -7.245233 -0.996026 1.904025 4.305781 0.251427 59.087475 -12.018885 18.540291 
-1.947318 40.678638 11.915548 -152.003540 10.878078 0.716291 0.000000 0.000000 0.000000 -17.693192 -15.610775 3.252899 -72.793961 0.175778 -0.322264 -9.018899 0.728488 -11.026227 32.536640 29.987354 -2.448501 -12.774940 15.634805 -33.271008 -51.125237 40.018753 -111.052826 92.213829 10.467307 -13.855626 -17.179771 -30.000000 13.808339 -0.749363 -41.167351 42.088242 158.783310 -138.785248 0.871740 -72.504051 -56.690857 -22.555014 -2.896238 -5.338797 15.493629 12.243551 -2.267423 -0.532061 37.601196 -12.513263 13.836645 0.945364 -6.055746 -0.667288 1.413198 3.965498 0.138443 58.204884 -12.452176 16.994482 
-2.095882 40.757416 11.752397 -153.938370 10.243444 -0.674317 0.000000 0.000000 0.000000 -16.082592 -14.622705 3.469852 -72.367821 0.986318 -0.263633 -8.524834 0.287163 -11.425880 32.686378 29.996689 -2.438299 -12.282836 15.900689 -33.363903 -50.788143 39.243576 -110.234322 91.618790 10.949757 -14.062878 -16.761883 -30.000000 13.870700 -0.058969 -40.685741 42.115273 158.051025 -138.924591 0.039734 -73.560158 -56.667053 -21.397011 -0.311746 -4.481373 15.770347 11.457700 -2.510483 -0.525887 37.197857 -12.502002 14.102447 3.425012 -5.016303 -0.415506 0.575776 3.715919 0.031952 58.991257 -11.542201 18.781195 
-2.250840 40.831181 11.572587 -156.049454 9.534431 -2.148087 0.000000 0.000000 0.000000 -14.285690 -13.556762 3.694933 -71.968689 1.699209 -0.195227 -8.128462 0.210593 -11.416080 32.726776 29.994127 -2.270956 -11.799322 16.386271 -33.500900 -50.863068 38.536861 -109.953545 91.428383 11.131041 -13.867753 -16.282291 -30.000000 13.936608 0.748813 -40.073544 42.159210 157.081970 -139.155365 -0.974418 -74.762291 -56.629265 -20.105419 2.372255 -3.659968 15.957543 10.881467 -2.742251 -0.538204 36.565166 -12.264990 14.221464 5.920283 -4.086246 -0.209153 0.010597 3.564563 -0.024125 58.986530 -11.600010 18.641840 
-2.527024 40.907413 11.471878 -157.773804 7.893290 -3.766152 0.000000 0.000000 0.000000 -12.626265 -11.768096 4.058236 -71.803268 2.207022 -0.165893 -7.901343 -0.095873 -10.966813 32.983852 29.987307 -2.369642 -11.564188 16.965853 -33.649452 -51.248428 37.977108 -110.134071 91.343666 11.260100 -13.617504 -16.089539 -30.000000 13.876335 1.444683 -39.279629 42.262299 156.233536 -139.587204 -2.010945 -75.905823 -56.590298 -18.889576 4.389253 -1.627831 16.570412 10.753222 -3.309353 -0.641500 36.385868 -11.965250 13.488323 7.485394 -1.921998 0.402769 0.292683 2.894426 -0.082634 58.679993 -11.335392 18.497089 
-2.845537 40.950012 11.346576 -159.753815 6.015807 -5.645620 0.000000 0.000000 0.000000 -10.717683 -9.853337 4.469551 -71.616882 2.958979 -0.107279 -6.005067 -0.701352 -10.323157 33.460861 29.990637 -2.629055 -11.197992 17.668390 -33.832245 -51.790749 37.185017 -109.674820 90.812675 11.711722 -13.887593 -15.436688 -30.000000 14.149953 2.338245 -38.706703 42.321640 155.149887 -139.900040 -3.258335 -77.111122 -56.529755 -17.824560 7.030957 0.576294 17.205526 10.180795 -4.108624 -0.737277 36.228596 -11.561357 13.214106 9.530953 0.390730 1.072233 0.233780 2.063208 -0.278145 58.234413 -10.789041 17.147409 
-3.160688 40.973286 11.221458 -161.796829 4.056458 -7.547628 0.000000 0.000000 0.000000 -8.669501 -7.920991 4.859922 -71.408859 3.828124 -0.038975 -3.222153 -1.097627 -9.621100 33.980965 29.993372 -2.892608 -10.736279 18.404551 -34.031902 -52.275070 36.237103 -109.041916 90.319527 12.119937 -14.141536 -14.527961 -30.000000 14.588620 3.613298 -38.088268 42.380543 153.441483 -140.289276 -4.808602 -78.454231 -56.467415 -16.764257 9.906905 2.676071 17.802694 9.468210 -5.037773 -0.890446 35.936546 -10.783860 12.753365 11.689213 2.529710 1.659722 0.127098 1.335246 -0.447485 57.947392 -9.982817 15.739285 
-3.479341 40.974735 11.088880 -163.960815 2.012886 -9.527216 0.000000 0.000000 0.000000 -6.386038 -5.951643 5.252061 -71.228050 4.726562 0.030002 -0.239120 -0.994385 -8.663507 34.523773 29.998371 -3.108010 -10.063845 19.134848 -34.235397 -52.556381 35.131420 -108.268242 89.825523 12.524837 -14.352473 -13.384109 -30.000000 15.162828 5.056807 -37.337265 42.485088 151.440796 -140.913055 -6.488343 -79.864830 -56.387398 -15.700660 13.122334 4.648747 18.390793 8.604792 -6.136226 -1.125906 35.985062 -9.624323 11.045224 14.026778 4.500232 2.201741 0.028622 0.643686 -0.596720 57.856674 -8.995589 14.493971 
-3.828365 40.943638 10.938332 -166.383850 -0.248588 -11.748188 0.000000 0.000000 0.000000 -3.695342 -3.887281 5.657323 -71.130707 5.781238 0.118559 2.905389 -0.571483 -7.314867 35.325890 29.991730 -3.403664 -9.053653 19.735056 -34.421848 -52.451996 33.925919 -107.138474 89.048515 13.137642 -14.709448 -11.929169 -30.000000 15.931812 6.402554 -36.384304 42.671684 -30.496611 -38.073647 171.772263 -81.302788 -56.286503 -14.546440 16.911655 6.631221 18.888758 7.473629 -7.502987 -1.368675 36.543327 -8.154607 7.717042 16.728680 6.484558 2.770794 -0.035907 -0.056118 -0.782304 57.684071 -7.922968 13.124210 
-4.209048 40.883915 10.793224 -168.884048 -2.803206 -14.138711 0.000000 0.000000 0.000000 -0.677145 -1.777105 6.067280 -71.144745 7.197215 0.216821 6.138830 -0.553932 -5.654598 36.607792 29.989319 -4.042934 -7.848512 19.890511 -34.487762 -51.746597 32.856152 -105.588181 87.799896 14.075346 -15.320495 -10.200995 -30.000000 16.905996 7.622799 -35.103886 42.915699 -32.426014 -36.531555 169.743988 -82.931396 -56.091465 -12.748878 21.186304 8.750324 19.412806 6.106838 -9.154454 -1.625760 36.755798 -6.665421 4.734875 19.512585 8.463216 3.381487 0.096343 -0.747630 -0.980653 57.383568 -6.880329 11.684626 
-4.583735 40.769535 10.597408 -172.010086 -5.227836 -16.781586 0.000000 0.000000 0.000000 2.903668 -0.058233 6.357419 -71.061661 8.837741 0.337091 9.544035 -0.038946 -4.433599 37.819782 29.991234 -4.471693 -6.656879 20.749430 -34.708935 -52.074448 31.379105 -103.449852 86.719131 14.764935 -16.278784 -7.203430 -30.000000 18.731014 8.473734 -34.056427 43.131573 -33.639793 -34.511585 167.839371 -85.675209 -55.714172 -10.233027 26.379129 9.960938 19.367649 4.021266 -10.290314 -1.768484 36.893063 -4.939561 1.783981 23.550024 9.666327 3.727437 -0.864947 -1.144554 -1.118541 57.825050 -6.045803 10.077198 
-4.859332 40.740894 10.530152 -172.348740 -6.140379 -18.302586 0.000000 0.000000 0.000000 3.271710 0.601572 6.504366 -70.829803 9.726323 0.407834 12.754675 0.292367 -3.671877 38.499733 29.991220 -4.838903 -5.774823 21.494200 -34.898705 -52.343704 29.854681 -102.303871 85.704529 15.377808 -17.089815 -5.595060 -30.000000 19.739117 9.304142 -33.365520 43.283360 -34.474205 -33.763481 166.781036 -87.655388 -55.482159 -8.787077 26.866941 10.127064 19.395388 3.346776 -10.181022 -1.700931 36.940586 -4.821873 0.130728 23.673637 9.996930 3.829021 -0.995532 -1.276623 -1.177518 58.608994 -5.262746 11.574511 
-5.033953 40.833633 10.520938 -171.118149 -5.246082 -18.410387 0.000000 0.000000 0.000000 1.502925 -0.271756 6.357490 -70.310410 9.745842 0.417462 14.667599 0.770476 -2.929948 38.780346 29.993690 -5.313284 -5.473905 21.868402 -34.987240 -52.307327 28.606070 -102.077065 84.781898 16.032990 -17.414940 -6.061102 -30.000000 19.379917 9.504990 -32.535175 43.432007 -34.450100 -33.782951 167.221344 -88.378113 -55.403515 -8.345453 23.845625 8.906410 19.195309 3.823636 -8.878113 -1.401340 36.980854 -6.361704 0.840304 21.056078 9.049416 3.546741 -0.439281 -1.012545 -1.070297 59.116161 -4.910030 14.917406 
